<svg width="221" height="222" viewBox="0 0 221 222" fill="none" xmlns="http://www.w3.org/2000/svg">
<path d="M34.471 72.5123C43.0957 60.3589 52.2996 32.1361 55.8235 19.5439C55.3579 2.17087 63.7153 4.18532 67.9522 7.36417C88.0872 29.4706 130.164 44.9841 148.685 49.9775C179.567 59.3506 198.844 87.6233 204.622 100.588C210.815 136.946 192.111 166.562 181.985 176.825C157.211 207.701 105.683 207.32 83.016 203.27C30.8912 198.761 13.245 164.945 10.9375 148.601C4.55837 120.116 23.69 87.7042 34.471 72.5123Z" fill="#EAD5E3" stroke="#6D6C94" stroke-width="4"/>
<path d="M45.4801 191.482C70.8141 177.44 135.783 152.324 192.987 164.191" stroke="#6D6C94" stroke-width="3" stroke-linecap="round"/>
<path d="M45.9888 91.6283C48.9576 97.5315 57.4001 108.127 67.419 103.284C70.849 102.948 76.3426 98.2608 70.8775 82.2017" stroke="#6D6C94" stroke-width="4.04507" stroke-linecap="round"/>
<path d="M110.402 74.3678C113.371 80.271 121.813 90.8667 131.832 86.0239C135.262 85.6876 140.755 81.0003 135.29 64.9412" stroke="#6D6C94" stroke-width="4.04507" stroke-linecap="round"/>
<path d="M89.0005 117.839C96.3343 121.797 112.98 125.288 120.891 107.583" stroke="#6D6C94" stroke-width="4.04507" stroke-linecap="round"/>
<ellipse rx="15.6836" ry="7.33811" transform="matrix(0.97389 -0.226151 0.225315 0.974488 53.461 124.409)" fill="#C49992"/>
<ellipse rx="15.6836" ry="7.33819" transform="matrix(0.97389 -0.226153 0.225312 0.974488 155.953 97.2135)" fill="#C49992"/>
</svg>
